<svg viewBox="0 0 40 56" xmlns="http://www.w3.org/2000/svg" shape-rendering="crispEdges"><rect x="2" y="3" width="38" height="53" rx="2" fill="#8a7a6a"></rect><rect x="0" y="0" width="38" height="53" rx="2" fill="#f5ecd0"></rect><rect x="0" y="0" width="38" height="2" rx="1" fill="#fff9ee"></rect><rect x="0" y="0" width="2" height="53" rx="1" fill="#fff9ee"></rect><rect x="0" y="0" width="38" height="53" rx="2" fill="none" stroke="#b8a070" stroke-width="1"></rect><g><rect x="14" y="8" width="2" height="2" fill="#c4391c"></rect><rect x="16" y="8" width="2" height="2" fill="#c4391c"></rect><rect x="12" y="10" width="2" height="2" fill="#c4391c"></rect><rect x="18" y="10" width="2" height="2" fill="#c4391c"></rect><rect x="12" y="12" width="2" height="2" fill="#1d7a1d"></rect><rect x="14" y="12" width="2" height="2" fill="#1d7a1d"></rect><rect x="16" y="12" width="2" height="2" fill="#1d7a1d"></rect><rect x="18" y="12" width="2" height="2" fill="#1d7a1d"></rect><rect x="20" y="12" width="2" height="2" fill="#1d7a1d"></rect><rect x="16" y="14" width="2" height="2" fill="#1d7a1d"></rect><rect x="22" y="14" width="2" height="2" fill="#1d7a1d"></rect><rect x="14" y="16" width="2" height="2" fill="#1d7a1d"></rect><rect x="16" y="16" width="2" height="2" fill="#1d7a1d"></rect><rect x="18" y="16" width="2" height="2" fill="#1d7a1d"></rect><rect x="14" y="18" width="2" height="2" fill="#1d7a1d"></rect><rect x="12" y="20" width="2" height="2" fill="#1d7a1d"></rect><rect x="14" y="20" width="2" height="2" fill="#1d7a1d"></rect></g><rect x="18" y="28" width="2" height="22" fill="#1d7a1d"></rect><rect x="19" y="28" width="1" height="22" fill="#2aaa2a"></rect></svg>