<svg viewBox="0 0 40 56" xmlns="http://www.w3.org/2000/svg" shape-rendering="crispEdges"><rect x="2" y="3" width="38" height="53" rx="2" fill="#8a7a6a"></rect><rect x="0" y="0" width="38" height="53" rx="2" fill="#f5ecd0"></rect><rect x="0" y="0" width="38" height="2" rx="1" fill="#fff9ee"></rect><rect x="0" y="0" width="2" height="53" rx="1" fill="#fff9ee"></rect><rect x="0" y="0" width="38" height="53" rx="2" fill="none" stroke="#b8a070" stroke-width="1"></rect><g><rect x="13" y="12" width="2" height="2" fill="#1a3f9e"></rect><rect x="15" y="12" width="2" height="2" fill="#1a3f9e"></rect><rect x="17" y="12" width="2" height="2" fill="#1a3f9e"></rect><rect x="19" y="12" width="2" height="2" fill="#1a3f9e"></rect><rect x="21" y="12" width="2" height="2" fill="#1a3f9e"></rect><rect x="23" y="12" width="2" height="2" fill="#1a3f9e"></rect><rect x="15" y="14" width="2" height="2" fill="#1a3f9e"></rect><rect x="21" y="14" width="2" height="2" fill="#1a3f9e"></rect><rect x="11" y="16" width="2" height="2" fill="#1a3f9e"></rect><rect x="13" y="16" width="2" height="2" fill="#1a3f9e"></rect><rect x="15" y="16" width="2" height="2" fill="#1a3f9e"></rect><rect x="17" y="16" width="2" height="2" fill="#1a3f9e"></rect><rect x="19" y="16" width="2" height="2" fill="#1a3f9e"></rect><rect x="21" y="16" width="2" height="2" fill="#1a3f9e"></rect><rect x="23" y="16" width="2" height="2" fill="#1a3f9e"></rect><rect x="25" y="16" width="2" height="2" fill="#1a3f9e"></rect><rect x="15" y="18" width="2" height="2" fill="#1a3f9e"></rect><rect x="21" y="18" width="2" height="2" fill="#1a3f9e"></rect><rect x="13" y="20" width="2" height="2" fill="#1a3f9e"></rect><rect x="15" y="20" width="2" height="2" fill="#1a3f9e"></rect><rect x="17" y="20" width="2" height="2" fill="#1a3f9e"></rect><rect x="19" y="20" width="2" height="2" fill="#1a3f9e"></rect><rect x="21" y="20" width="2" height="2" fill="#1a3f9e"></rect><rect x="23" y="20" width="2" height="2" fill="#1a3f9e"></rect><rect x="15" y="22" width="2" height="2" fill="#1a3f9e"></rect><rect x="21" y="22" width="2" height="2" fill="#1a3f9e"></rect><rect x="13" y="24" width="2" height="2" fill="#1a3f9e"></rect><rect x="15" y="24" width="2" height="2" fill="#1a3f9e"></rect><rect x="21" y="24" width="2" height="2" fill="#1a3f9e"></rect><rect x="23" y="24" width="2" height="2" fill="#1a3f9e"></rect><rect x="11" y="26" width="2" height="2" fill="#1a3f9e"></rect><rect x="13" y="26" width="2" height="2" fill="#1a3f9e"></rect><rect x="23" y="26" width="2" height="2" fill="#1a3f9e"></rect><rect x="25" y="26" width="2" height="2" fill="#1a3f9e"></rect></g></svg>