<svg viewBox="0 0 40 56" xmlns="http://www.w3.org/2000/svg" shape-rendering="crispEdges"><rect x="2" y="3" width="38" height="53" rx="2" fill="#8a7a6a"></rect><rect x="0" y="0" width="38" height="53" rx="2" fill="#f5ecd0"></rect><rect x="0" y="0" width="38" height="2" rx="1" fill="#fff9ee"></rect><rect x="0" y="0" width="2" height="53" rx="1" fill="#fff9ee"></rect><rect x="0" y="0" width="38" height="53" rx="2" fill="none" stroke="#b8a070" stroke-width="1"></rect><g><rect x="18" y="9" width="1" height="1" fill="#6688dd"></rect><rect x="19" y="9" width="1" height="1" fill="#6688dd"></rect><rect x="20" y="9" width="1" height="1" fill="#6688dd"></rect><rect x="17" y="10" width="1" height="1" fill="#1a3f9e"></rect><rect x="21" y="10" width="1" height="1" fill="#1a3f9e"></rect><rect x="16" y="11" width="1" height="1" fill="#6688dd"></rect><rect x="22" y="11" width="1" height="1" fill="#6688dd"></rect><rect x="16" y="12" width="1" height="1" fill="#6688dd"></rect><rect x="22" y="12" width="1" height="1" fill="#6688dd"></rect><rect x="16" y="13" width="1" height="1" fill="#6688dd"></rect><rect x="22" y="13" width="1" height="1" fill="#6688dd"></rect><rect x="17" y="14" width="1" height="1" fill="#1a3f9e"></rect><rect x="21" y="14" width="1" height="1" fill="#1a3f9e"></rect><rect x="18" y="15" width="1" height="1" fill="#6688dd"></rect><rect x="19" y="15" width="1" height="1" fill="#6688dd"></rect><rect x="20" y="15" width="1" height="1" fill="#6688dd"></rect><rect x="19" y="12" width="1" height="1" fill="#6688dd"></rect></g><g><rect x="18" y="23" width="1" height="1" fill="#6688dd"></rect><rect x="19" y="23" width="1" height="1" fill="#6688dd"></rect><rect x="20" y="23" width="1" height="1" fill="#6688dd"></rect><rect x="17" y="24" width="1" height="1" fill="#1a3f9e"></rect><rect x="21" y="24" width="1" height="1" fill="#1a3f9e"></rect><rect x="16" y="25" width="1" height="1" fill="#6688dd"></rect><rect x="22" y="25" width="1" height="1" fill="#6688dd"></rect><rect x="16" y="26" width="1" height="1" fill="#6688dd"></rect><rect x="22" y="26" width="1" height="1" fill="#6688dd"></rect><rect x="16" y="27" width="1" height="1" fill="#6688dd"></rect><rect x="22" y="27" width="1" height="1" fill="#6688dd"></rect><rect x="17" y="28" width="1" height="1" fill="#1a3f9e"></rect><rect x="21" y="28" width="1" height="1" fill="#1a3f9e"></rect><rect x="18" y="29" width="1" height="1" fill="#6688dd"></rect><rect x="19" y="29" width="1" height="1" fill="#6688dd"></rect><rect x="20" y="29" width="1" height="1" fill="#6688dd"></rect><rect x="19" y="26" width="1" height="1" fill="#6688dd"></rect></g><g><rect x="18" y="37" width="1" height="1" fill="#6688dd"></rect><rect x="19" y="37" width="1" height="1" fill="#6688dd"></rect><rect x="20" y="37" width="1" height="1" fill="#6688dd"></rect><rect x="17" y="38" width="1" height="1" fill="#1a3f9e"></rect><rect x="21" y="38" width="1" height="1" fill="#1a3f9e"></rect><rect x="16" y="39" width="1" height="1" fill="#6688dd"></rect><rect x="22" y="39" width="1" height="1" fill="#6688dd"></rect><rect x="16" y="40" width="1" height="1" fill="#6688dd"></rect><rect x="22" y="40" width="1" height="1" fill="#6688dd"></rect><rect x="16" y="41" width="1" height="1" fill="#6688dd"></rect><rect x="22" y="41" width="1" height="1" fill="#6688dd"></rect><rect x="17" y="42" width="1" height="1" fill="#1a3f9e"></rect><rect x="21" y="42" width="1" height="1" fill="#1a3f9e"></rect><rect x="18" y="43" width="1" height="1" fill="#6688dd"></rect><rect x="19" y="43" width="1" height="1" fill="#6688dd"></rect><rect x="20" y="43" width="1" height="1" fill="#6688dd"></rect><rect x="19" y="40" width="1" height="1" fill="#6688dd"></rect></g></svg>