<svg viewBox="0 0 40 56" xmlns="http://www.w3.org/2000/svg" shape-rendering="crispEdges"><rect x="2" y="3" width="38" height="53" rx="2" fill="#8a7a6a"></rect><rect x="0" y="0" width="38" height="53" rx="2" fill="#f5ecd0"></rect><rect x="0" y="0" width="38" height="2" rx="1" fill="#fff9ee"></rect><rect x="0" y="0" width="2" height="53" rx="1" fill="#fff9ee"></rect><rect x="0" y="0" width="38" height="53" rx="2" fill="none" stroke="#b8a070" stroke-width="1"></rect><g><rect x="12" y="13" width="1" height="1" fill="#6688dd"></rect><rect x="13" y="13" width="1" height="1" fill="#6688dd"></rect><rect x="14" y="13" width="1" height="1" fill="#6688dd"></rect><rect x="11" y="14" width="1" height="1" fill="#1a3f9e"></rect><rect x="15" y="14" width="1" height="1" fill="#1a3f9e"></rect><rect x="10" y="15" width="1" height="1" fill="#6688dd"></rect><rect x="16" y="15" width="1" height="1" fill="#6688dd"></rect><rect x="10" y="16" width="1" height="1" fill="#6688dd"></rect><rect x="16" y="16" width="1" height="1" fill="#6688dd"></rect><rect x="10" y="17" width="1" height="1" fill="#6688dd"></rect><rect x="16" y="17" width="1" height="1" fill="#6688dd"></rect><rect x="11" y="18" width="1" height="1" fill="#1a3f9e"></rect><rect x="15" y="18" width="1" height="1" fill="#1a3f9e"></rect><rect x="12" y="19" width="1" height="1" fill="#6688dd"></rect><rect x="13" y="19" width="1" height="1" fill="#6688dd"></rect><rect x="14" y="19" width="1" height="1" fill="#6688dd"></rect><rect x="13" y="16" width="1" height="1" fill="#6688dd"></rect></g><g><rect x="24" y="13" width="1" height="1" fill="#6688dd"></rect><rect x="25" y="13" width="1" height="1" fill="#6688dd"></rect><rect x="26" y="13" width="1" height="1" fill="#6688dd"></rect><rect x="23" y="14" width="1" height="1" fill="#1a3f9e"></rect><rect x="27" y="14" width="1" height="1" fill="#1a3f9e"></rect><rect x="22" y="15" width="1" height="1" fill="#6688dd"></rect><rect x="28" y="15" width="1" height="1" fill="#6688dd"></rect><rect x="22" y="16" width="1" height="1" fill="#6688dd"></rect><rect x="28" y="16" width="1" height="1" fill="#6688dd"></rect><rect x="22" y="17" width="1" height="1" fill="#6688dd"></rect><rect x="28" y="17" width="1" height="1" fill="#6688dd"></rect><rect x="23" y="18" width="1" height="1" fill="#1a3f9e"></rect><rect x="27" y="18" width="1" height="1" fill="#1a3f9e"></rect><rect x="24" y="19" width="1" height="1" fill="#6688dd"></rect><rect x="25" y="19" width="1" height="1" fill="#6688dd"></rect><rect x="26" y="19" width="1" height="1" fill="#6688dd"></rect><rect x="25" y="16" width="1" height="1" fill="#6688dd"></rect></g><g><rect x="12" y="33" width="1" height="1" fill="#6688dd"></rect><rect x="13" y="33" width="1" height="1" fill="#6688dd"></rect><rect x="14" y="33" width="1" height="1" fill="#6688dd"></rect><rect x="11" y="34" width="1" height="1" fill="#1a3f9e"></rect><rect x="15" y="34" width="1" height="1" fill="#1a3f9e"></rect><rect x="10" y="35" width="1" height="1" fill="#6688dd"></rect><rect x="16" y="35" width="1" height="1" fill="#6688dd"></rect><rect x="10" y="36" width="1" height="1" fill="#6688dd"></rect><rect x="16" y="36" width="1" height="1" fill="#6688dd"></rect><rect x="10" y="37" width="1" height="1" fill="#6688dd"></rect><rect x="16" y="37" width="1" height="1" fill="#6688dd"></rect><rect x="11" y="38" width="1" height="1" fill="#1a3f9e"></rect><rect x="15" y="38" width="1" height="1" fill="#1a3f9e"></rect><rect x="12" y="39" width="1" height="1" fill="#6688dd"></rect><rect x="13" y="39" width="1" height="1" fill="#6688dd"></rect><rect x="14" y="39" width="1" height="1" fill="#6688dd"></rect><rect x="13" y="36" width="1" height="1" fill="#6688dd"></rect></g><g><rect x="24" y="33" width="1" height="1" fill="#6688dd"></rect><rect x="25" y="33" width="1" height="1" fill="#6688dd"></rect><rect x="26" y="33" width="1" height="1" fill="#6688dd"></rect><rect x="23" y="34" width="1" height="1" fill="#1a3f9e"></rect><rect x="27" y="34" width="1" height="1" fill="#1a3f9e"></rect><rect x="22" y="35" width="1" height="1" fill="#6688dd"></rect><rect x="28" y="35" width="1" height="1" fill="#6688dd"></rect><rect x="22" y="36" width="1" height="1" fill="#6688dd"></rect><rect x="28" y="36" width="1" height="1" fill="#6688dd"></rect><rect x="22" y="37" width="1" height="1" fill="#6688dd"></rect><rect x="28" y="37" width="1" height="1" fill="#6688dd"></rect><rect x="23" y="38" width="1" height="1" fill="#1a3f9e"></rect><rect x="27" y="38" width="1" height="1" fill="#1a3f9e"></rect><rect x="24" y="39" width="1" height="1" fill="#6688dd"></rect><rect x="25" y="39" width="1" height="1" fill="#6688dd"></rect><rect x="26" y="39" width="1" height="1" fill="#6688dd"></rect><rect x="25" y="36" width="1" height="1" fill="#6688dd"></rect></g></svg>