<svg viewBox="0 0 40 56" xmlns="http://www.w3.org/2000/svg" shape-rendering="crispEdges"><rect x="2" y="3" width="38" height="53" rx="2" fill="#8a7a6a"></rect><rect x="0" y="0" width="38" height="53" rx="2" fill="#f5ecd0"></rect><rect x="0" y="0" width="38" height="2" rx="1" fill="#fff9ee"></rect><rect x="0" y="0" width="2" height="53" rx="1" fill="#fff9ee"></rect><rect x="0" y="0" width="38" height="53" rx="2" fill="none" stroke="#b8a070" stroke-width="1"></rect><g><rect x="12" y="8" width="1" height="1" fill="#6688dd"></rect><rect x="13" y="8" width="1" height="1" fill="#6688dd"></rect><rect x="14" y="8" width="1" height="1" fill="#6688dd"></rect><rect x="11" y="9" width="1" height="1" fill="#1a3f9e"></rect><rect x="15" y="9" width="1" height="1" fill="#1a3f9e"></rect><rect x="10" y="10" width="1" height="1" fill="#6688dd"></rect><rect x="16" y="10" width="1" height="1" fill="#6688dd"></rect><rect x="10" y="11" width="1" height="1" fill="#6688dd"></rect><rect x="16" y="11" width="1" height="1" fill="#6688dd"></rect><rect x="10" y="12" width="1" height="1" fill="#6688dd"></rect><rect x="16" y="12" width="1" height="1" fill="#6688dd"></rect><rect x="11" y="13" width="1" height="1" fill="#1a3f9e"></rect><rect x="15" y="13" width="1" height="1" fill="#1a3f9e"></rect><rect x="12" y="14" width="1" height="1" fill="#6688dd"></rect><rect x="13" y="14" width="1" height="1" fill="#6688dd"></rect><rect x="14" y="14" width="1" height="1" fill="#6688dd"></rect><rect x="13" y="11" width="1" height="1" fill="#6688dd"></rect></g><g><rect x="24" y="8" width="1" height="1" fill="#6688dd"></rect><rect x="25" y="8" width="1" height="1" fill="#6688dd"></rect><rect x="26" y="8" width="1" height="1" fill="#6688dd"></rect><rect x="23" y="9" width="1" height="1" fill="#1a3f9e"></rect><rect x="27" y="9" width="1" height="1" fill="#1a3f9e"></rect><rect x="22" y="10" width="1" height="1" fill="#6688dd"></rect><rect x="28" y="10" width="1" height="1" fill="#6688dd"></rect><rect x="22" y="11" width="1" height="1" fill="#6688dd"></rect><rect x="28" y="11" width="1" height="1" fill="#6688dd"></rect><rect x="22" y="12" width="1" height="1" fill="#6688dd"></rect><rect x="28" y="12" width="1" height="1" fill="#6688dd"></rect><rect x="23" y="13" width="1" height="1" fill="#1a3f9e"></rect><rect x="27" y="13" width="1" height="1" fill="#1a3f9e"></rect><rect x="24" y="14" width="1" height="1" fill="#6688dd"></rect><rect x="25" y="14" width="1" height="1" fill="#6688dd"></rect><rect x="26" y="14" width="1" height="1" fill="#6688dd"></rect><rect x="25" y="11" width="1" height="1" fill="#6688dd"></rect></g><g><rect x="12" y="20" width="1" height="1" fill="#6688dd"></rect><rect x="13" y="20" width="1" height="1" fill="#6688dd"></rect><rect x="14" y="20" width="1" height="1" fill="#6688dd"></rect><rect x="11" y="21" width="1" height="1" fill="#1a3f9e"></rect><rect x="15" y="21" width="1" height="1" fill="#1a3f9e"></rect><rect x="10" y="22" width="1" height="1" fill="#6688dd"></rect><rect x="16" y="22" width="1" height="1" fill="#6688dd"></rect><rect x="10" y="23" width="1" height="1" fill="#6688dd"></rect><rect x="16" y="23" width="1" height="1" fill="#6688dd"></rect><rect x="10" y="24" width="1" height="1" fill="#6688dd"></rect><rect x="16" y="24" width="1" height="1" fill="#6688dd"></rect><rect x="11" y="25" width="1" height="1" fill="#1a3f9e"></rect><rect x="15" y="25" width="1" height="1" fill="#1a3f9e"></rect><rect x="12" y="26" width="1" height="1" fill="#6688dd"></rect><rect x="13" y="26" width="1" height="1" fill="#6688dd"></rect><rect x="14" y="26" width="1" height="1" fill="#6688dd"></rect><rect x="13" y="23" width="1" height="1" fill="#6688dd"></rect></g><g><rect x="24" y="20" width="1" height="1" fill="#6688dd"></rect><rect x="25" y="20" width="1" height="1" fill="#6688dd"></rect><rect x="26" y="20" width="1" height="1" fill="#6688dd"></rect><rect x="23" y="21" width="1" height="1" fill="#1a3f9e"></rect><rect x="27" y="21" width="1" height="1" fill="#1a3f9e"></rect><rect x="22" y="22" width="1" height="1" fill="#6688dd"></rect><rect x="28" y="22" width="1" height="1" fill="#6688dd"></rect><rect x="22" y="23" width="1" height="1" fill="#6688dd"></rect><rect x="28" y="23" width="1" height="1" fill="#6688dd"></rect><rect x="22" y="24" width="1" height="1" fill="#6688dd"></rect><rect x="28" y="24" width="1" height="1" fill="#6688dd"></rect><rect x="23" y="25" width="1" height="1" fill="#1a3f9e"></rect><rect x="27" y="25" width="1" height="1" fill="#1a3f9e"></rect><rect x="24" y="26" width="1" height="1" fill="#6688dd"></rect><rect x="25" y="26" width="1" height="1" fill="#6688dd"></rect><rect x="26" y="26" width="1" height="1" fill="#6688dd"></rect><rect x="25" y="23" width="1" height="1" fill="#6688dd"></rect></g><g><rect x="12" y="32" width="1" height="1" fill="#6688dd"></rect><rect x="13" y="32" width="1" height="1" fill="#6688dd"></rect><rect x="14" y="32" width="1" height="1" fill="#6688dd"></rect><rect x="11" y="33" width="1" height="1" fill="#1a3f9e"></rect><rect x="15" y="33" width="1" height="1" fill="#1a3f9e"></rect><rect x="10" y="34" width="1" height="1" fill="#6688dd"></rect><rect x="16" y="34" width="1" height="1" fill="#6688dd"></rect><rect x="10" y="35" width="1" height="1" fill="#6688dd"></rect><rect x="16" y="35" width="1" height="1" fill="#6688dd"></rect><rect x="10" y="36" width="1" height="1" fill="#6688dd"></rect><rect x="16" y="36" width="1" height="1" fill="#6688dd"></rect><rect x="11" y="37" width="1" height="1" fill="#1a3f9e"></rect><rect x="15" y="37" width="1" height="1" fill="#1a3f9e"></rect><rect x="12" y="38" width="1" height="1" fill="#6688dd"></rect><rect x="13" y="38" width="1" height="1" fill="#6688dd"></rect><rect x="14" y="38" width="1" height="1" fill="#6688dd"></rect><rect x="13" y="35" width="1" height="1" fill="#6688dd"></rect></g><g><rect x="24" y="32" width="1" height="1" fill="#6688dd"></rect><rect x="25" y="32" width="1" height="1" fill="#6688dd"></rect><rect x="26" y="32" width="1" height="1" fill="#6688dd"></rect><rect x="23" y="33" width="1" height="1" fill="#1a3f9e"></rect><rect x="27" y="33" width="1" height="1" fill="#1a3f9e"></rect><rect x="22" y="34" width="1" height="1" fill="#6688dd"></rect><rect x="28" y="34" width="1" height="1" fill="#6688dd"></rect><rect x="22" y="35" width="1" height="1" fill="#6688dd"></rect><rect x="28" y="35" width="1" height="1" fill="#6688dd"></rect><rect x="22" y="36" width="1" height="1" fill="#6688dd"></rect><rect x="28" y="36" width="1" height="1" fill="#6688dd"></rect><rect x="23" y="37" width="1" height="1" fill="#1a3f9e"></rect><rect x="27" y="37" width="1" height="1" fill="#1a3f9e"></rect><rect x="24" y="38" width="1" height="1" fill="#6688dd"></rect><rect x="25" y="38" width="1" height="1" fill="#6688dd"></rect><rect x="26" y="38" width="1" height="1" fill="#6688dd"></rect><rect x="25" y="35" width="1" height="1" fill="#6688dd"></rect></g><g><rect x="18" y="41" width="1" height="1" fill="#6688dd"></rect><rect x="19" y="41" width="1" height="1" fill="#6688dd"></rect><rect x="20" y="41" width="1" height="1" fill="#6688dd"></rect><rect x="17" y="42" width="1" height="1" fill="#1a3f9e"></rect><rect x="21" y="42" width="1" height="1" fill="#1a3f9e"></rect><rect x="16" y="43" width="1" height="1" fill="#6688dd"></rect><rect x="22" y="43" width="1" height="1" fill="#6688dd"></rect><rect x="16" y="44" width="1" height="1" fill="#6688dd"></rect><rect x="22" y="44" width="1" height="1" fill="#6688dd"></rect><rect x="16" y="45" width="1" height="1" fill="#6688dd"></rect><rect x="22" y="45" width="1" height="1" fill="#6688dd"></rect><rect x="17" y="46" width="1" height="1" fill="#1a3f9e"></rect><rect x="21" y="46" width="1" height="1" fill="#1a3f9e"></rect><rect x="18" y="47" width="1" height="1" fill="#6688dd"></rect><rect x="19" y="47" width="1" height="1" fill="#6688dd"></rect><rect x="20" y="47" width="1" height="1" fill="#6688dd"></rect><rect x="19" y="44" width="1" height="1" fill="#6688dd"></rect></g></svg>