<svg viewBox="0 0 40 56" xmlns="http://www.w3.org/2000/svg" shape-rendering="crispEdges"><rect x="2" y="3" width="38" height="53" rx="2" fill="#8a7a6a"></rect><rect x="0" y="0" width="38" height="53" rx="2" fill="#f5ecd0"></rect><rect x="0" y="0" width="38" height="2" rx="1" fill="#fff9ee"></rect><rect x="0" y="0" width="2" height="53" rx="1" fill="#fff9ee"></rect><rect x="0" y="0" width="38" height="53" rx="2" fill="none" stroke="#b8a070" stroke-width="1"></rect><g><rect x="11" y="8" width="2" height="12" fill="#1d7a1d"></rect><rect x="12" y="8" width="1" height="12" fill="#2aaa2a"></rect><rect x="10" y="13" width="4" height="2" fill="#155a15"></rect><rect x="11" y="13" width="2" height="2" fill="#1d9a1d"></rect></g><g><rect x="19" y="8" width="2" height="12" fill="#1d7a1d"></rect><rect x="20" y="8" width="1" height="12" fill="#2aaa2a"></rect><rect x="18" y="13" width="4" height="2" fill="#155a15"></rect><rect x="19" y="13" width="2" height="2" fill="#1d9a1d"></rect></g><g><rect x="27" y="8" width="2" height="12" fill="#1d7a1d"></rect><rect x="28" y="8" width="1" height="12" fill="#2aaa2a"></rect><rect x="26" y="13" width="4" height="2" fill="#155a15"></rect><rect x="27" y="13" width="2" height="2" fill="#1d9a1d"></rect></g><g><rect x="11" y="22" width="2" height="12" fill="#1d7a1d"></rect><rect x="12" y="22" width="1" height="12" fill="#2aaa2a"></rect><rect x="10" y="27" width="4" height="2" fill="#155a15"></rect><rect x="11" y="27" width="2" height="2" fill="#1d9a1d"></rect></g><g><rect x="27" y="22" width="2" height="12" fill="#1d7a1d"></rect><rect x="28" y="22" width="1" height="12" fill="#2aaa2a"></rect><rect x="26" y="27" width="4" height="2" fill="#155a15"></rect><rect x="27" y="27" width="2" height="2" fill="#1d9a1d"></rect></g><g><rect x="11" y="36" width="2" height="12" fill="#1d7a1d"></rect><rect x="12" y="36" width="1" height="12" fill="#2aaa2a"></rect><rect x="10" y="41" width="4" height="2" fill="#155a15"></rect><rect x="11" y="41" width="2" height="2" fill="#1d9a1d"></rect></g><g><rect x="27" y="36" width="2" height="12" fill="#1d7a1d"></rect><rect x="28" y="36" width="1" height="12" fill="#2aaa2a"></rect><rect x="26" y="41" width="4" height="2" fill="#155a15"></rect><rect x="27" y="41" width="2" height="2" fill="#1d9a1d"></rect></g></svg>