<svg viewBox="0 0 40 56" xmlns="http://www.w3.org/2000/svg" shape-rendering="crispEdges"><rect x="2" y="3" width="38" height="53" rx="2" fill="#8a7a6a"></rect><rect x="0" y="0" width="38" height="53" rx="2" fill="#f5ecd0"></rect><rect x="0" y="0" width="38" height="2" rx="1" fill="#fff9ee"></rect><rect x="0" y="0" width="2" height="53" rx="1" fill="#fff9ee"></rect><rect x="0" y="0" width="38" height="53" rx="2" fill="none" stroke="#b8a070" stroke-width="1"></rect><g><rect x="12" y="9" width="1" height="1" fill="#6688dd"></rect><rect x="13" y="9" width="1" height="1" fill="#6688dd"></rect><rect x="14" y="9" width="1" height="1" fill="#6688dd"></rect><rect x="11" y="10" width="1" height="1" fill="#6688dd"></rect><rect x="15" y="10" width="1" height="1" fill="#6688dd"></rect><rect x="11" y="11" width="1" height="1" fill="#6688dd"></rect><rect x="15" y="11" width="1" height="1" fill="#6688dd"></rect><rect x="11" y="12" width="1" height="1" fill="#6688dd"></rect><rect x="15" y="12" width="1" height="1" fill="#6688dd"></rect><rect x="12" y="13" width="1" height="1" fill="#6688dd"></rect><rect x="13" y="13" width="1" height="1" fill="#6688dd"></rect><rect x="14" y="13" width="1" height="1" fill="#6688dd"></rect><rect x="13" y="11" width="1" height="1" fill="#6688dd"></rect></g><g><rect x="24" y="9" width="1" height="1" fill="#6688dd"></rect><rect x="25" y="9" width="1" height="1" fill="#6688dd"></rect><rect x="26" y="9" width="1" height="1" fill="#6688dd"></rect><rect x="23" y="10" width="1" height="1" fill="#6688dd"></rect><rect x="27" y="10" width="1" height="1" fill="#6688dd"></rect><rect x="23" y="11" width="1" height="1" fill="#6688dd"></rect><rect x="27" y="11" width="1" height="1" fill="#6688dd"></rect><rect x="23" y="12" width="1" height="1" fill="#6688dd"></rect><rect x="27" y="12" width="1" height="1" fill="#6688dd"></rect><rect x="24" y="13" width="1" height="1" fill="#6688dd"></rect><rect x="25" y="13" width="1" height="1" fill="#6688dd"></rect><rect x="26" y="13" width="1" height="1" fill="#6688dd"></rect><rect x="25" y="11" width="1" height="1" fill="#6688dd"></rect></g><g><rect x="12" y="20" width="1" height="1" fill="#6688dd"></rect><rect x="13" y="20" width="1" height="1" fill="#6688dd"></rect><rect x="14" y="20" width="1" height="1" fill="#6688dd"></rect><rect x="11" y="21" width="1" height="1" fill="#6688dd"></rect><rect x="15" y="21" width="1" height="1" fill="#6688dd"></rect><rect x="11" y="22" width="1" height="1" fill="#6688dd"></rect><rect x="15" y="22" width="1" height="1" fill="#6688dd"></rect><rect x="11" y="23" width="1" height="1" fill="#6688dd"></rect><rect x="15" y="23" width="1" height="1" fill="#6688dd"></rect><rect x="12" y="24" width="1" height="1" fill="#6688dd"></rect><rect x="13" y="24" width="1" height="1" fill="#6688dd"></rect><rect x="14" y="24" width="1" height="1" fill="#6688dd"></rect><rect x="13" y="22" width="1" height="1" fill="#6688dd"></rect></g><g><rect x="24" y="20" width="1" height="1" fill="#6688dd"></rect><rect x="25" y="20" width="1" height="1" fill="#6688dd"></rect><rect x="26" y="20" width="1" height="1" fill="#6688dd"></rect><rect x="23" y="21" width="1" height="1" fill="#6688dd"></rect><rect x="27" y="21" width="1" height="1" fill="#6688dd"></rect><rect x="23" y="22" width="1" height="1" fill="#6688dd"></rect><rect x="27" y="22" width="1" height="1" fill="#6688dd"></rect><rect x="23" y="23" width="1" height="1" fill="#6688dd"></rect><rect x="27" y="23" width="1" height="1" fill="#6688dd"></rect><rect x="24" y="24" width="1" height="1" fill="#6688dd"></rect><rect x="25" y="24" width="1" height="1" fill="#6688dd"></rect><rect x="26" y="24" width="1" height="1" fill="#6688dd"></rect><rect x="25" y="22" width="1" height="1" fill="#6688dd"></rect></g><g><rect x="12" y="31" width="1" height="1" fill="#6688dd"></rect><rect x="13" y="31" width="1" height="1" fill="#6688dd"></rect><rect x="14" y="31" width="1" height="1" fill="#6688dd"></rect><rect x="11" y="32" width="1" height="1" fill="#6688dd"></rect><rect x="15" y="32" width="1" height="1" fill="#6688dd"></rect><rect x="11" y="33" width="1" height="1" fill="#6688dd"></rect><rect x="15" y="33" width="1" height="1" fill="#6688dd"></rect><rect x="11" y="34" width="1" height="1" fill="#6688dd"></rect><rect x="15" y="34" width="1" height="1" fill="#6688dd"></rect><rect x="12" y="35" width="1" height="1" fill="#6688dd"></rect><rect x="13" y="35" width="1" height="1" fill="#6688dd"></rect><rect x="14" y="35" width="1" height="1" fill="#6688dd"></rect><rect x="13" y="33" width="1" height="1" fill="#6688dd"></rect></g><g><rect x="24" y="31" width="1" height="1" fill="#6688dd"></rect><rect x="25" y="31" width="1" height="1" fill="#6688dd"></rect><rect x="26" y="31" width="1" height="1" fill="#6688dd"></rect><rect x="23" y="32" width="1" height="1" fill="#6688dd"></rect><rect x="27" y="32" width="1" height="1" fill="#6688dd"></rect><rect x="23" y="33" width="1" height="1" fill="#6688dd"></rect><rect x="27" y="33" width="1" height="1" fill="#6688dd"></rect><rect x="23" y="34" width="1" height="1" fill="#6688dd"></rect><rect x="27" y="34" width="1" height="1" fill="#6688dd"></rect><rect x="24" y="35" width="1" height="1" fill="#6688dd"></rect><rect x="25" y="35" width="1" height="1" fill="#6688dd"></rect><rect x="26" y="35" width="1" height="1" fill="#6688dd"></rect><rect x="25" y="33" width="1" height="1" fill="#6688dd"></rect></g><g><rect x="12" y="42" width="1" height="1" fill="#6688dd"></rect><rect x="13" y="42" width="1" height="1" fill="#6688dd"></rect><rect x="14" y="42" width="1" height="1" fill="#6688dd"></rect><rect x="11" y="43" width="1" height="1" fill="#6688dd"></rect><rect x="15" y="43" width="1" height="1" fill="#6688dd"></rect><rect x="11" y="44" width="1" height="1" fill="#6688dd"></rect><rect x="15" y="44" width="1" height="1" fill="#6688dd"></rect><rect x="11" y="45" width="1" height="1" fill="#6688dd"></rect><rect x="15" y="45" width="1" height="1" fill="#6688dd"></rect><rect x="12" y="46" width="1" height="1" fill="#6688dd"></rect><rect x="13" y="46" width="1" height="1" fill="#6688dd"></rect><rect x="14" y="46" width="1" height="1" fill="#6688dd"></rect><rect x="13" y="44" width="1" height="1" fill="#6688dd"></rect></g><g><rect x="24" y="42" width="1" height="1" fill="#6688dd"></rect><rect x="25" y="42" width="1" height="1" fill="#6688dd"></rect><rect x="26" y="42" width="1" height="1" fill="#6688dd"></rect><rect x="23" y="43" width="1" height="1" fill="#6688dd"></rect><rect x="27" y="43" width="1" height="1" fill="#6688dd"></rect><rect x="23" y="44" width="1" height="1" fill="#6688dd"></rect><rect x="27" y="44" width="1" height="1" fill="#6688dd"></rect><rect x="23" y="45" width="1" height="1" fill="#6688dd"></rect><rect x="27" y="45" width="1" height="1" fill="#6688dd"></rect><rect x="24" y="46" width="1" height="1" fill="#6688dd"></rect><rect x="25" y="46" width="1" height="1" fill="#6688dd"></rect><rect x="26" y="46" width="1" height="1" fill="#6688dd"></rect><rect x="25" y="44" width="1" height="1" fill="#6688dd"></rect></g></svg>