<svg viewBox="0 0 40 56" xmlns="http://www.w3.org/2000/svg" shape-rendering="crispEdges"><rect x="2" y="3" width="38" height="53" rx="2" fill="#8a7a6a"></rect><rect x="0" y="0" width="38" height="53" rx="2" fill="#f5ecd0"></rect><rect x="0" y="0" width="38" height="2" rx="1" fill="#fff9ee"></rect><rect x="0" y="0" width="2" height="53" rx="1" fill="#fff9ee"></rect><rect x="0" y="0" width="38" height="53" rx="2" fill="none" stroke="#b8a070" stroke-width="1"></rect><g><rect x="10" y="9" width="1" height="1" fill="#6688dd"></rect><rect x="11" y="9" width="1" height="1" fill="#6688dd"></rect><rect x="12" y="9" width="1" height="1" fill="#6688dd"></rect><rect x="9" y="10" width="1" height="1" fill="#6688dd"></rect><rect x="13" y="10" width="1" height="1" fill="#6688dd"></rect><rect x="9" y="11" width="1" height="1" fill="#6688dd"></rect><rect x="13" y="11" width="1" height="1" fill="#6688dd"></rect><rect x="9" y="12" width="1" height="1" fill="#6688dd"></rect><rect x="13" y="12" width="1" height="1" fill="#6688dd"></rect><rect x="10" y="13" width="1" height="1" fill="#6688dd"></rect><rect x="11" y="13" width="1" height="1" fill="#6688dd"></rect><rect x="12" y="13" width="1" height="1" fill="#6688dd"></rect><rect x="11" y="11" width="1" height="1" fill="#6688dd"></rect></g><g><rect x="18" y="9" width="1" height="1" fill="#6688dd"></rect><rect x="19" y="9" width="1" height="1" fill="#6688dd"></rect><rect x="20" y="9" width="1" height="1" fill="#6688dd"></rect><rect x="17" y="10" width="1" height="1" fill="#6688dd"></rect><rect x="21" y="10" width="1" height="1" fill="#6688dd"></rect><rect x="17" y="11" width="1" height="1" fill="#6688dd"></rect><rect x="21" y="11" width="1" height="1" fill="#6688dd"></rect><rect x="17" y="12" width="1" height="1" fill="#6688dd"></rect><rect x="21" y="12" width="1" height="1" fill="#6688dd"></rect><rect x="18" y="13" width="1" height="1" fill="#6688dd"></rect><rect x="19" y="13" width="1" height="1" fill="#6688dd"></rect><rect x="20" y="13" width="1" height="1" fill="#6688dd"></rect><rect x="19" y="11" width="1" height="1" fill="#6688dd"></rect></g><g><rect x="26" y="9" width="1" height="1" fill="#6688dd"></rect><rect x="27" y="9" width="1" height="1" fill="#6688dd"></rect><rect x="28" y="9" width="1" height="1" fill="#6688dd"></rect><rect x="25" y="10" width="1" height="1" fill="#6688dd"></rect><rect x="29" y="10" width="1" height="1" fill="#6688dd"></rect><rect x="25" y="11" width="1" height="1" fill="#6688dd"></rect><rect x="29" y="11" width="1" height="1" fill="#6688dd"></rect><rect x="25" y="12" width="1" height="1" fill="#6688dd"></rect><rect x="29" y="12" width="1" height="1" fill="#6688dd"></rect><rect x="26" y="13" width="1" height="1" fill="#6688dd"></rect><rect x="27" y="13" width="1" height="1" fill="#6688dd"></rect><rect x="28" y="13" width="1" height="1" fill="#6688dd"></rect><rect x="27" y="11" width="1" height="1" fill="#6688dd"></rect></g><g><rect x="10" y="22" width="1" height="1" fill="#6688dd"></rect><rect x="11" y="22" width="1" height="1" fill="#6688dd"></rect><rect x="12" y="22" width="1" height="1" fill="#6688dd"></rect><rect x="9" y="23" width="1" height="1" fill="#6688dd"></rect><rect x="13" y="23" width="1" height="1" fill="#6688dd"></rect><rect x="9" y="24" width="1" height="1" fill="#6688dd"></rect><rect x="13" y="24" width="1" height="1" fill="#6688dd"></rect><rect x="9" y="25" width="1" height="1" fill="#6688dd"></rect><rect x="13" y="25" width="1" height="1" fill="#6688dd"></rect><rect x="10" y="26" width="1" height="1" fill="#6688dd"></rect><rect x="11" y="26" width="1" height="1" fill="#6688dd"></rect><rect x="12" y="26" width="1" height="1" fill="#6688dd"></rect><rect x="11" y="24" width="1" height="1" fill="#6688dd"></rect></g><g><rect x="18" y="22" width="1" height="1" fill="#6688dd"></rect><rect x="19" y="22" width="1" height="1" fill="#6688dd"></rect><rect x="20" y="22" width="1" height="1" fill="#6688dd"></rect><rect x="17" y="23" width="1" height="1" fill="#6688dd"></rect><rect x="21" y="23" width="1" height="1" fill="#6688dd"></rect><rect x="17" y="24" width="1" height="1" fill="#6688dd"></rect><rect x="21" y="24" width="1" height="1" fill="#6688dd"></rect><rect x="17" y="25" width="1" height="1" fill="#6688dd"></rect><rect x="21" y="25" width="1" height="1" fill="#6688dd"></rect><rect x="18" y="26" width="1" height="1" fill="#6688dd"></rect><rect x="19" y="26" width="1" height="1" fill="#6688dd"></rect><rect x="20" y="26" width="1" height="1" fill="#6688dd"></rect><rect x="19" y="24" width="1" height="1" fill="#6688dd"></rect></g><g><rect x="26" y="22" width="1" height="1" fill="#6688dd"></rect><rect x="27" y="22" width="1" height="1" fill="#6688dd"></rect><rect x="28" y="22" width="1" height="1" fill="#6688dd"></rect><rect x="25" y="23" width="1" height="1" fill="#6688dd"></rect><rect x="29" y="23" width="1" height="1" fill="#6688dd"></rect><rect x="25" y="24" width="1" height="1" fill="#6688dd"></rect><rect x="29" y="24" width="1" height="1" fill="#6688dd"></rect><rect x="25" y="25" width="1" height="1" fill="#6688dd"></rect><rect x="29" y="25" width="1" height="1" fill="#6688dd"></rect><rect x="26" y="26" width="1" height="1" fill="#6688dd"></rect><rect x="27" y="26" width="1" height="1" fill="#6688dd"></rect><rect x="28" y="26" width="1" height="1" fill="#6688dd"></rect><rect x="27" y="24" width="1" height="1" fill="#6688dd"></rect></g><g><rect x="10" y="35" width="1" height="1" fill="#6688dd"></rect><rect x="11" y="35" width="1" height="1" fill="#6688dd"></rect><rect x="12" y="35" width="1" height="1" fill="#6688dd"></rect><rect x="9" y="36" width="1" height="1" fill="#6688dd"></rect><rect x="13" y="36" width="1" height="1" fill="#6688dd"></rect><rect x="9" y="37" width="1" height="1" fill="#6688dd"></rect><rect x="13" y="37" width="1" height="1" fill="#6688dd"></rect><rect x="9" y="38" width="1" height="1" fill="#6688dd"></rect><rect x="13" y="38" width="1" height="1" fill="#6688dd"></rect><rect x="10" y="39" width="1" height="1" fill="#6688dd"></rect><rect x="11" y="39" width="1" height="1" fill="#6688dd"></rect><rect x="12" y="39" width="1" height="1" fill="#6688dd"></rect><rect x="11" y="37" width="1" height="1" fill="#6688dd"></rect></g><g><rect x="18" y="35" width="1" height="1" fill="#6688dd"></rect><rect x="19" y="35" width="1" height="1" fill="#6688dd"></rect><rect x="20" y="35" width="1" height="1" fill="#6688dd"></rect><rect x="17" y="36" width="1" height="1" fill="#6688dd"></rect><rect x="21" y="36" width="1" height="1" fill="#6688dd"></rect><rect x="17" y="37" width="1" height="1" fill="#6688dd"></rect><rect x="21" y="37" width="1" height="1" fill="#6688dd"></rect><rect x="17" y="38" width="1" height="1" fill="#6688dd"></rect><rect x="21" y="38" width="1" height="1" fill="#6688dd"></rect><rect x="18" y="39" width="1" height="1" fill="#6688dd"></rect><rect x="19" y="39" width="1" height="1" fill="#6688dd"></rect><rect x="20" y="39" width="1" height="1" fill="#6688dd"></rect><rect x="19" y="37" width="1" height="1" fill="#6688dd"></rect></g><g><rect x="26" y="35" width="1" height="1" fill="#6688dd"></rect><rect x="27" y="35" width="1" height="1" fill="#6688dd"></rect><rect x="28" y="35" width="1" height="1" fill="#6688dd"></rect><rect x="25" y="36" width="1" height="1" fill="#6688dd"></rect><rect x="29" y="36" width="1" height="1" fill="#6688dd"></rect><rect x="25" y="37" width="1" height="1" fill="#6688dd"></rect><rect x="29" y="37" width="1" height="1" fill="#6688dd"></rect><rect x="25" y="38" width="1" height="1" fill="#6688dd"></rect><rect x="29" y="38" width="1" height="1" fill="#6688dd"></rect><rect x="26" y="39" width="1" height="1" fill="#6688dd"></rect><rect x="27" y="39" width="1" height="1" fill="#6688dd"></rect><rect x="28" y="39" width="1" height="1" fill="#6688dd"></rect><rect x="27" y="37" width="1" height="1" fill="#6688dd"></rect></g></svg>