<svg viewBox="0 0 40 56" xmlns="http://www.w3.org/2000/svg" shape-rendering="crispEdges"><rect x="2" y="3" width="38" height="53" rx="2" fill="#8a7a6a"></rect><rect x="0" y="0" width="38" height="53" rx="2" fill="#f5ecd0"></rect><rect x="0" y="0" width="38" height="2" rx="1" fill="#fff9ee"></rect><rect x="0" y="0" width="2" height="53" rx="1" fill="#fff9ee"></rect><rect x="0" y="0" width="38" height="53" rx="2" fill="none" stroke="#b8a070" stroke-width="1"></rect><g><rect x="10" y="6" width="2" height="10" fill="#1d7a1d"></rect><rect x="11" y="6" width="1" height="10" fill="#2aaa2a"></rect><rect x="9" y="10" width="4" height="2" fill="#155a15"></rect><rect x="10" y="10" width="2" height="2" fill="#1d9a1d"></rect></g><g><rect x="18" y="6" width="2" height="10" fill="#1d7a1d"></rect><rect x="19" y="6" width="1" height="10" fill="#2aaa2a"></rect><rect x="17" y="10" width="4" height="2" fill="#155a15"></rect><rect x="18" y="10" width="2" height="2" fill="#1d9a1d"></rect></g><g><rect x="26" y="6" width="2" height="10" fill="#1d7a1d"></rect><rect x="27" y="6" width="1" height="10" fill="#2aaa2a"></rect><rect x="25" y="10" width="4" height="2" fill="#155a15"></rect><rect x="26" y="10" width="2" height="2" fill="#1d9a1d"></rect></g><g><rect x="10" y="18" width="2" height="12" fill="#1d7a1d"></rect><rect x="11" y="18" width="1" height="12" fill="#2aaa2a"></rect><rect x="9" y="23" width="4" height="2" fill="#155a15"></rect><rect x="10" y="23" width="2" height="2" fill="#1d9a1d"></rect></g><g><rect x="18" y="18" width="2" height="12" fill="#1d7a1d"></rect><rect x="19" y="18" width="1" height="12" fill="#2aaa2a"></rect><rect x="17" y="23" width="4" height="2" fill="#155a15"></rect><rect x="18" y="23" width="2" height="2" fill="#1d9a1d"></rect></g><g><rect x="26" y="18" width="2" height="12" fill="#1d7a1d"></rect><rect x="27" y="18" width="1" height="12" fill="#2aaa2a"></rect><rect x="25" y="23" width="4" height="2" fill="#155a15"></rect><rect x="26" y="23" width="2" height="2" fill="#1d9a1d"></rect></g><g><rect x="10" y="32" width="2" height="12" fill="#1d7a1d"></rect><rect x="11" y="32" width="1" height="12" fill="#2aaa2a"></rect><rect x="9" y="37" width="4" height="2" fill="#155a15"></rect><rect x="10" y="37" width="2" height="2" fill="#1d9a1d"></rect></g><g><rect x="18" y="32" width="2" height="12" fill="#1d7a1d"></rect><rect x="19" y="32" width="1" height="12" fill="#2aaa2a"></rect><rect x="17" y="37" width="4" height="2" fill="#155a15"></rect><rect x="18" y="37" width="2" height="2" fill="#1d9a1d"></rect></g><g><rect x="26" y="32" width="2" height="12" fill="#1d7a1d"></rect><rect x="27" y="32" width="1" height="12" fill="#2aaa2a"></rect><rect x="25" y="37" width="4" height="2" fill="#155a15"></rect><rect x="26" y="37" width="2" height="2" fill="#1d9a1d"></rect></g></svg>