<svg viewBox="0 0 40 56" xmlns="http://www.w3.org/2000/svg" shape-rendering="crispEdges"><rect x="2" y="3" width="38" height="53" rx="2" fill="#4a3020"></rect><rect x="0" y="0" width="38" height="53" rx="2" fill="#7a4820"></rect><g><line x1="0" y1="0" x2="53" y2="53" stroke="#8a5828" stroke-width="1"></line><line x1="53" y1="0" x2="0" y2="53" stroke="#8a5828" stroke-width="1"></line></g><g><line x1="4" y1="0" x2="57" y2="53" stroke="#8a5828" stroke-width="1"></line><line x1="57" y1="0" x2="4" y2="53" stroke="#8a5828" stroke-width="1"></line></g><g><line x1="8" y1="0" x2="61" y2="53" stroke="#8a5828" stroke-width="1"></line><line x1="61" y1="0" x2="8" y2="53" stroke="#8a5828" stroke-width="1"></line></g><g><line x1="12" y1="0" x2="65" y2="53" stroke="#8a5828" stroke-width="1"></line><line x1="65" y1="0" x2="12" y2="53" stroke="#8a5828" stroke-width="1"></line></g><g><line x1="16" y1="0" x2="69" y2="53" stroke="#8a5828" stroke-width="1"></line><line x1="69" y1="0" x2="16" y2="53" stroke="#8a5828" stroke-width="1"></line></g><g><line x1="20" y1="0" x2="73" y2="53" stroke="#8a5828" stroke-width="1"></line><line x1="73" y1="0" x2="20" y2="53" stroke="#8a5828" stroke-width="1"></line></g><g><line x1="24" y1="0" x2="77" y2="53" stroke="#8a5828" stroke-width="1"></line><line x1="77" y1="0" x2="24" y2="53" stroke="#8a5828" stroke-width="1"></line></g><g><line x1="28" y1="0" x2="81" y2="53" stroke="#8a5828" stroke-width="1"></line><line x1="81" y1="0" x2="28" y2="53" stroke="#8a5828" stroke-width="1"></line></g><g><line x1="32" y1="0" x2="85" y2="53" stroke="#8a5828" stroke-width="1"></line><line x1="85" y1="0" x2="32" y2="53" stroke="#8a5828" stroke-width="1"></line></g><g><line x1="36" y1="0" x2="89" y2="53" stroke="#8a5828" stroke-width="1"></line><line x1="89" y1="0" x2="36" y2="53" stroke="#8a5828" stroke-width="1"></line></g><rect x="0" y="0" width="38" height="53" rx="2" fill="none" stroke="#5a3010" stroke-width="1"></rect></svg>