<svg xmlns="http://www.w3.org/2000/svg" viewBox="0 0 100 150" width="100" height="150" shape-rendering="crispEdges">
<style>.rank{font:700 14px monospace}.figure{font:700 7px monospace;letter-spacing:1px}</style>
<rect x="3" y="3" width="94" height="144" fill="#1b2933"/><rect x="3" y="0" width="94" height="144" fill="#fffdf6"/>
<rect x="7" y="4" width="86" height="136" fill="#fff"/><rect x="8" y="5" width="84" height="134" fill="#fffdfb"/>
<text x="10" y="20" class="rank" fill="#263b48">10</text><rect x="14.50" y="23.00" width="2.00" height="2.00" fill="#263b48"/><rect x="12.50" y="25.00" width="6.00" height="2.00" fill="#263b48"/><rect x="10.50" y="27.00" width="10.00" height="4.00" fill="#263b48"/><rect x="12.50" y="31.00" width="6.00" height="2.00" fill="#263b48"/><rect x="14.50" y="33.00" width="2.00" height="2.00" fill="#263b48"/><rect x="12.50" y="35.00" width="6.00" height="1.00" fill="#263b48"/><rect x="29.07" y="13.86" width="3.71" height="3.71" fill="#263b48"/><rect x="25.36" y="17.57" width="11.14" height="3.71" fill="#263b48"/><rect x="21.64" y="21.29" width="18.57" height="7.43" fill="#263b48"/><rect x="25.36" y="28.71" width="11.14" height="3.71" fill="#263b48"/><rect x="29.07" y="32.43" width="3.71" height="3.71" fill="#263b48"/><rect x="25.36" y="36.14" width="11.14" height="1.86" fill="#263b48"/><rect x="69.07" y="13.86" width="3.71" height="3.71" fill="#263b48"/><rect x="65.36" y="17.57" width="11.14" height="3.71" fill="#263b48"/><rect x="61.64" y="21.29" width="18.57" height="7.43" fill="#263b48"/><rect x="65.36" y="28.71" width="11.14" height="3.71" fill="#263b48"/><rect x="69.07" y="32.43" width="3.71" height="3.71" fill="#263b48"/><rect x="65.36" y="36.14" width="11.14" height="1.86" fill="#263b48"/><rect x="49.07" y="33.86" width="3.71" height="3.71" fill="#263b48"/><rect x="45.36" y="37.57" width="11.14" height="3.71" fill="#263b48"/><rect x="41.64" y="41.29" width="18.57" height="7.43" fill="#263b48"/><rect x="45.36" y="48.71" width="11.14" height="3.71" fill="#263b48"/><rect x="49.07" y="52.43" width="3.71" height="3.71" fill="#263b48"/><rect x="45.36" y="56.14" width="11.14" height="1.86" fill="#263b48"/><rect x="29.07" y="50.86" width="3.71" height="3.71" fill="#263b48"/><rect x="25.36" y="54.57" width="11.14" height="3.71" fill="#263b48"/><rect x="21.64" y="58.29" width="18.57" height="7.43" fill="#263b48"/><rect x="25.36" y="65.71" width="11.14" height="3.71" fill="#263b48"/><rect x="29.07" y="69.43" width="3.71" height="3.71" fill="#263b48"/><rect x="25.36" y="73.14" width="11.14" height="1.86" fill="#263b48"/><rect x="69.07" y="50.86" width="3.71" height="3.71" fill="#263b48"/><rect x="65.36" y="54.57" width="11.14" height="3.71" fill="#263b48"/><rect x="61.64" y="58.29" width="18.57" height="7.43" fill="#263b48"/><rect x="65.36" y="65.71" width="11.14" height="3.71" fill="#263b48"/><rect x="69.07" y="69.43" width="3.71" height="3.71" fill="#263b48"/><rect x="65.36" y="73.14" width="11.14" height="1.86" fill="#263b48"/><rect x="29.07" y="76.86" width="3.71" height="3.71" fill="#263b48"/><rect x="25.36" y="80.57" width="11.14" height="3.71" fill="#263b48"/><rect x="21.64" y="84.29" width="18.57" height="7.43" fill="#263b48"/><rect x="25.36" y="91.71" width="11.14" height="3.71" fill="#263b48"/><rect x="29.07" y="95.43" width="3.71" height="3.71" fill="#263b48"/><rect x="25.36" y="99.14" width="11.14" height="1.86" fill="#263b48"/><rect x="69.07" y="76.86" width="3.71" height="3.71" fill="#263b48"/><rect x="65.36" y="80.57" width="11.14" height="3.71" fill="#263b48"/><rect x="61.64" y="84.29" width="18.57" height="7.43" fill="#263b48"/><rect x="65.36" y="91.71" width="11.14" height="3.71" fill="#263b48"/><rect x="69.07" y="95.43" width="3.71" height="3.71" fill="#263b48"/><rect x="65.36" y="99.14" width="11.14" height="1.86" fill="#263b48"/><rect x="49.07" y="93.86" width="3.71" height="3.71" fill="#263b48"/><rect x="45.36" y="97.57" width="11.14" height="3.71" fill="#263b48"/><rect x="41.64" y="101.29" width="18.57" height="7.43" fill="#263b48"/><rect x="45.36" y="108.71" width="11.14" height="3.71" fill="#263b48"/><rect x="49.07" y="112.43" width="3.71" height="3.71" fill="#263b48"/><rect x="45.36" y="116.14" width="11.14" height="1.86" fill="#263b48"/><rect x="29.07" y="113.86" width="3.71" height="3.71" fill="#263b48"/><rect x="25.36" y="117.57" width="11.14" height="3.71" fill="#263b48"/><rect x="21.64" y="121.29" width="18.57" height="7.43" fill="#263b48"/><rect x="25.36" y="128.71" width="11.14" height="3.71" fill="#263b48"/><rect x="29.07" y="132.43" width="3.71" height="3.71" fill="#263b48"/><rect x="25.36" y="136.14" width="11.14" height="1.86" fill="#263b48"/><rect x="69.07" y="113.86" width="3.71" height="3.71" fill="#263b48"/><rect x="65.36" y="117.57" width="11.14" height="3.71" fill="#263b48"/><rect x="61.64" y="121.29" width="18.57" height="7.43" fill="#263b48"/><rect x="65.36" y="128.71" width="11.14" height="3.71" fill="#263b48"/><rect x="69.07" y="132.43" width="3.71" height="3.71" fill="#263b48"/><rect x="65.36" y="136.14" width="11.14" height="1.86" fill="#263b48"/><g transform="rotate(180 50 75)"><text x="10" y="20" class="rank" fill="#263b48">10</text><rect x="14.50" y="23.00" width="2.00" height="2.00" fill="#263b48"/><rect x="12.50" y="25.00" width="6.00" height="2.00" fill="#263b48"/><rect x="10.50" y="27.00" width="10.00" height="4.00" fill="#263b48"/><rect x="12.50" y="31.00" width="6.00" height="2.00" fill="#263b48"/><rect x="14.50" y="33.00" width="2.00" height="2.00" fill="#263b48"/><rect x="12.50" y="35.00" width="6.00" height="1.00" fill="#263b48"/></g>
</svg>