<svg xmlns="http://www.w3.org/2000/svg" viewBox="0 0 100 150" width="100" height="150" shape-rendering="crispEdges"><rect x="3" y="3" width="94" height="144" fill="#1b2933"/><rect x="3" y="0" width="94" height="144" fill="#ecf4ef"/><rect x="7" y="4" width="86" height="136" fill="#fffbef"/><rect x="10" y="7" width="80" height="130" fill="#274d59"/><path d="M14 16h8v-5h8v5h8v8h-8v8h-8v-8h-8zm48 0h8v-5h8v5h8v8h-8v8h-8v-8h-8zM14 118h8v-5h8v5h8v8h-8v8h-8v-8h-8zm48 0h8v-5h8v5h8v8h-8v8h-8v-8h-8z" fill="#ffcf5a"/><path d="M50 35l18 18-18 18-18-18zm0 45l18 18-18 18-18-18z" fill="#e35d54"/><path d="M50 42l11 11-11 11-11-11zm0 45l11 11-11 11-11-11z" fill="#ffcf5a"/></svg>