<svg xmlns="http://www.w3.org/2000/svg" viewBox="0 0 100 150" width="100" height="150" shape-rendering="crispEdges">
<style>.rank{font:700 14px monospace}.figure{font:700 7px monospace;letter-spacing:1px}</style>
<rect x="3" y="3" width="94" height="144" fill="#1b2933"/><rect x="3" y="0" width="94" height="144" fill="#fffdf6"/>
<rect x="7" y="4" width="86" height="136" fill="#fff"/><rect x="8" y="5" width="84" height="134" fill="#fffdfb"/>
<text x="10" y="20" class="rank" fill="#e23d3a">3</text><rect x="14.50" y="23.00" width="2.00" height="2.00" fill="#e23d3a"/><rect x="12.50" y="25.00" width="6.00" height="2.00" fill="#e23d3a"/><rect x="10.50" y="27.00" width="10.00" height="3.00" fill="#e23d3a"/><rect x="12.50" y="30.00" width="6.00" height="2.00" fill="#e23d3a"/><rect x="14.50" y="32.00" width="2.00" height="3.00" fill="#e23d3a"/><rect x="49.07" y="22.86" width="3.71" height="3.71" fill="#e23d3a"/><rect x="45.36" y="26.57" width="11.14" height="3.71" fill="#e23d3a"/><rect x="41.64" y="30.29" width="18.57" height="5.57" fill="#e23d3a"/><rect x="45.36" y="35.86" width="11.14" height="3.71" fill="#e23d3a"/><rect x="49.07" y="39.57" width="3.71" height="5.57" fill="#e23d3a"/><rect x="49.07" y="63.86" width="3.71" height="3.71" fill="#e23d3a"/><rect x="45.36" y="67.57" width="11.14" height="3.71" fill="#e23d3a"/><rect x="41.64" y="71.29" width="18.57" height="5.57" fill="#e23d3a"/><rect x="45.36" y="76.86" width="11.14" height="3.71" fill="#e23d3a"/><rect x="49.07" y="80.57" width="3.71" height="5.57" fill="#e23d3a"/><rect x="49.07" y="104.86" width="3.71" height="3.71" fill="#e23d3a"/><rect x="45.36" y="108.57" width="11.14" height="3.71" fill="#e23d3a"/><rect x="41.64" y="112.29" width="18.57" height="5.57" fill="#e23d3a"/><rect x="45.36" y="117.86" width="11.14" height="3.71" fill="#e23d3a"/><rect x="49.07" y="121.57" width="3.71" height="5.57" fill="#e23d3a"/><g transform="rotate(180 50 75)"><text x="10" y="20" class="rank" fill="#e23d3a">3</text><rect x="14.50" y="23.00" width="2.00" height="2.00" fill="#e23d3a"/><rect x="12.50" y="25.00" width="6.00" height="2.00" fill="#e23d3a"/><rect x="10.50" y="27.00" width="10.00" height="3.00" fill="#e23d3a"/><rect x="12.50" y="30.00" width="6.00" height="2.00" fill="#e23d3a"/><rect x="14.50" y="32.00" width="2.00" height="3.00" fill="#e23d3a"/></g>
</svg>