<svg xmlns="http://www.w3.org/2000/svg" viewBox="0 0 100 150" width="100" height="150" shape-rendering="crispEdges">
<style>.rank{font:700 14px monospace}.figure{font:700 7px monospace;letter-spacing:1px}</style>
<rect x="3" y="3" width="94" height="144" fill="#1b2933"/><rect x="3" y="0" width="94" height="144" fill="#fffdf6"/>
<rect x="7" y="4" width="86" height="136" fill="#fff"/><rect x="8" y="5" width="84" height="134" fill="#fffdfb"/>
<text x="10" y="20" class="rank" fill="#263b48">9</text><rect x="14.50" y="23.00" width="2.00" height="2.00" fill="#263b48"/><rect x="12.50" y="25.00" width="6.00" height="2.00" fill="#263b48"/><rect x="10.50" y="27.00" width="10.00" height="4.00" fill="#263b48"/><rect x="12.50" y="31.00" width="6.00" height="2.00" fill="#263b48"/><rect x="14.50" y="33.00" width="2.00" height="2.00" fill="#263b48"/><rect x="12.50" y="35.00" width="6.00" height="1.00" fill="#263b48"/><rect x="29.07" y="16.86" width="3.71" height="3.71" fill="#263b48"/><rect x="25.36" y="20.57" width="11.14" height="3.71" fill="#263b48"/><rect x="21.64" y="24.29" width="18.57" height="7.43" fill="#263b48"/><rect x="25.36" y="31.71" width="11.14" height="3.71" fill="#263b48"/><rect x="29.07" y="35.43" width="3.71" height="3.71" fill="#263b48"/><rect x="25.36" y="39.14" width="11.14" height="1.86" fill="#263b48"/><rect x="69.07" y="16.86" width="3.71" height="3.71" fill="#263b48"/><rect x="65.36" y="20.57" width="11.14" height="3.71" fill="#263b48"/><rect x="61.64" y="24.29" width="18.57" height="7.43" fill="#263b48"/><rect x="65.36" y="31.71" width="11.14" height="3.71" fill="#263b48"/><rect x="69.07" y="35.43" width="3.71" height="3.71" fill="#263b48"/><rect x="65.36" y="39.14" width="11.14" height="1.86" fill="#263b48"/><rect x="29.07" y="45.86" width="3.71" height="3.71" fill="#263b48"/><rect x="25.36" y="49.57" width="11.14" height="3.71" fill="#263b48"/><rect x="21.64" y="53.29" width="18.57" height="7.43" fill="#263b48"/><rect x="25.36" y="60.71" width="11.14" height="3.71" fill="#263b48"/><rect x="29.07" y="64.43" width="3.71" height="3.71" fill="#263b48"/><rect x="25.36" y="68.14" width="11.14" height="1.86" fill="#263b48"/><rect x="69.07" y="45.86" width="3.71" height="3.71" fill="#263b48"/><rect x="65.36" y="49.57" width="11.14" height="3.71" fill="#263b48"/><rect x="61.64" y="53.29" width="18.57" height="7.43" fill="#263b48"/><rect x="65.36" y="60.71" width="11.14" height="3.71" fill="#263b48"/><rect x="69.07" y="64.43" width="3.71" height="3.71" fill="#263b48"/><rect x="65.36" y="68.14" width="11.14" height="1.86" fill="#263b48"/><rect x="49.07" y="63.86" width="3.71" height="3.71" fill="#263b48"/><rect x="45.36" y="67.57" width="11.14" height="3.71" fill="#263b48"/><rect x="41.64" y="71.29" width="18.57" height="7.43" fill="#263b48"/><rect x="45.36" y="78.71" width="11.14" height="3.71" fill="#263b48"/><rect x="49.07" y="82.43" width="3.71" height="3.71" fill="#263b48"/><rect x="45.36" y="86.14" width="11.14" height="1.86" fill="#263b48"/><rect x="29.07" y="81.86" width="3.71" height="3.71" fill="#263b48"/><rect x="25.36" y="85.57" width="11.14" height="3.71" fill="#263b48"/><rect x="21.64" y="89.29" width="18.57" height="7.43" fill="#263b48"/><rect x="25.36" y="96.71" width="11.14" height="3.71" fill="#263b48"/><rect x="29.07" y="100.43" width="3.71" height="3.71" fill="#263b48"/><rect x="25.36" y="104.14" width="11.14" height="1.86" fill="#263b48"/><rect x="69.07" y="81.86" width="3.71" height="3.71" fill="#263b48"/><rect x="65.36" y="85.57" width="11.14" height="3.71" fill="#263b48"/><rect x="61.64" y="89.29" width="18.57" height="7.43" fill="#263b48"/><rect x="65.36" y="96.71" width="11.14" height="3.71" fill="#263b48"/><rect x="69.07" y="100.43" width="3.71" height="3.71" fill="#263b48"/><rect x="65.36" y="104.14" width="11.14" height="1.86" fill="#263b48"/><rect x="29.07" y="110.86" width="3.71" height="3.71" fill="#263b48"/><rect x="25.36" y="114.57" width="11.14" height="3.71" fill="#263b48"/><rect x="21.64" y="118.29" width="18.57" height="7.43" fill="#263b48"/><rect x="25.36" y="125.71" width="11.14" height="3.71" fill="#263b48"/><rect x="29.07" y="129.43" width="3.71" height="3.71" fill="#263b48"/><rect x="25.36" y="133.14" width="11.14" height="1.86" fill="#263b48"/><rect x="69.07" y="110.86" width="3.71" height="3.71" fill="#263b48"/><rect x="65.36" y="114.57" width="11.14" height="3.71" fill="#263b48"/><rect x="61.64" y="118.29" width="18.57" height="7.43" fill="#263b48"/><rect x="65.36" y="125.71" width="11.14" height="3.71" fill="#263b48"/><rect x="69.07" y="129.43" width="3.71" height="3.71" fill="#263b48"/><rect x="65.36" y="133.14" width="11.14" height="1.86" fill="#263b48"/><g transform="rotate(180 50 75)"><text x="10" y="20" class="rank" fill="#263b48">9</text><rect x="14.50" y="23.00" width="2.00" height="2.00" fill="#263b48"/><rect x="12.50" y="25.00" width="6.00" height="2.00" fill="#263b48"/><rect x="10.50" y="27.00" width="10.00" height="4.00" fill="#263b48"/><rect x="12.50" y="31.00" width="6.00" height="2.00" fill="#263b48"/><rect x="14.50" y="33.00" width="2.00" height="2.00" fill="#263b48"/><rect x="12.50" y="35.00" width="6.00" height="1.00" fill="#263b48"/></g>
</svg>