<svg xmlns="http://www.w3.org/2000/svg" viewBox="0 0 100 150" width="100" height="150" shape-rendering="crispEdges">
<style>.rank{font:700 14px monospace}.figure{font:700 7px monospace;letter-spacing:1px}</style>
<rect x="3" y="3" width="94" height="144" fill="#1b2933"/><rect x="3" y="0" width="94" height="144" fill="#fffdf6"/>
<rect x="7" y="4" width="86" height="136" fill="#fff"/><rect x="8" y="5" width="84" height="134" fill="#fffdfb"/>
<text x="10" y="20" class="rank" fill="#263b48">5</text><rect x="13.50" y="23.00" width="4.00" height="3.00" fill="#263b48"/><rect x="10.50" y="26.00" width="4.00" height="4.00" fill="#263b48"/><rect x="15.50" y="26.00" width="4.00" height="4.00" fill="#263b48"/><rect x="13.50" y="29.00" width="4.00" height="3.00" fill="#263b48"/><rect x="14.50" y="32.00" width="2.00" height="2.00" fill="#263b48"/><rect x="12.50" y="34.00" width="6.00" height="1.00" fill="#263b48"/><rect x="27.21" y="30.86" width="7.43" height="5.57" fill="#263b48"/><rect x="21.64" y="36.43" width="7.43" height="7.43" fill="#263b48"/><rect x="30.93" y="36.43" width="7.43" height="7.43" fill="#263b48"/><rect x="27.21" y="42.00" width="7.43" height="5.57" fill="#263b48"/><rect x="29.07" y="47.57" width="3.71" height="3.71" fill="#263b48"/><rect x="25.36" y="51.29" width="11.14" height="1.86" fill="#263b48"/><rect x="67.21" y="30.86" width="7.43" height="5.57" fill="#263b48"/><rect x="61.64" y="36.43" width="7.43" height="7.43" fill="#263b48"/><rect x="70.93" y="36.43" width="7.43" height="7.43" fill="#263b48"/><rect x="67.21" y="42.00" width="7.43" height="5.57" fill="#263b48"/><rect x="69.07" y="47.57" width="3.71" height="3.71" fill="#263b48"/><rect x="65.36" y="51.29" width="11.14" height="1.86" fill="#263b48"/><rect x="47.21" y="63.86" width="7.43" height="5.57" fill="#263b48"/><rect x="41.64" y="69.43" width="7.43" height="7.43" fill="#263b48"/><rect x="50.93" y="69.43" width="7.43" height="7.43" fill="#263b48"/><rect x="47.21" y="75.00" width="7.43" height="5.57" fill="#263b48"/><rect x="49.07" y="80.57" width="3.71" height="3.71" fill="#263b48"/><rect x="45.36" y="84.29" width="11.14" height="1.86" fill="#263b48"/><rect x="27.21" y="96.86" width="7.43" height="5.57" fill="#263b48"/><rect x="21.64" y="102.43" width="7.43" height="7.43" fill="#263b48"/><rect x="30.93" y="102.43" width="7.43" height="7.43" fill="#263b48"/><rect x="27.21" y="108.00" width="7.43" height="5.57" fill="#263b48"/><rect x="29.07" y="113.57" width="3.71" height="3.71" fill="#263b48"/><rect x="25.36" y="117.29" width="11.14" height="1.86" fill="#263b48"/><rect x="67.21" y="96.86" width="7.43" height="5.57" fill="#263b48"/><rect x="61.64" y="102.43" width="7.43" height="7.43" fill="#263b48"/><rect x="70.93" y="102.43" width="7.43" height="7.43" fill="#263b48"/><rect x="67.21" y="108.00" width="7.43" height="5.57" fill="#263b48"/><rect x="69.07" y="113.57" width="3.71" height="3.71" fill="#263b48"/><rect x="65.36" y="117.29" width="11.14" height="1.86" fill="#263b48"/><g transform="rotate(180 50 75)"><text x="10" y="20" class="rank" fill="#263b48">5</text><rect x="13.50" y="23.00" width="4.00" height="3.00" fill="#263b48"/><rect x="10.50" y="26.00" width="4.00" height="4.00" fill="#263b48"/><rect x="15.50" y="26.00" width="4.00" height="4.00" fill="#263b48"/><rect x="13.50" y="29.00" width="4.00" height="3.00" fill="#263b48"/><rect x="14.50" y="32.00" width="2.00" height="2.00" fill="#263b48"/><rect x="12.50" y="34.00" width="6.00" height="1.00" fill="#263b48"/></g>
</svg>