<svg xmlns="http://www.w3.org/2000/svg" viewBox="0 0 100 150" width="100" height="150" shape-rendering="crispEdges">
<style>.rank{font:700 14px monospace}.figure{font:700 7px monospace;letter-spacing:1px}</style>
<rect x="3" y="3" width="94" height="144" fill="#1b2933"/><rect x="3" y="0" width="94" height="144" fill="#fffdf6"/>
<rect x="7" y="4" width="86" height="136" fill="#fff"/><rect x="8" y="5" width="84" height="134" fill="#fffdfb"/>
<text x="10" y="20" class="rank" fill="#e23d3a">8</text><rect x="11.50" y="24.00" width="3.00" height="2.00" fill="#e23d3a"/><rect x="16.50" y="24.00" width="3.00" height="2.00" fill="#e23d3a"/><rect x="10.50" y="26.00" width="10.00" height="2.00" fill="#e23d3a"/><rect x="11.50" y="28.00" width="8.00" height="2.00" fill="#e23d3a"/><rect x="12.50" y="30.00" width="6.00" height="2.00" fill="#e23d3a"/><rect x="13.50" y="32.00" width="4.00" height="2.00" fill="#e23d3a"/><rect x="14.50" y="34.00" width="2.00" height="1.00" fill="#e23d3a"/><rect x="23.50" y="19.71" width="5.57" height="3.71" fill="#e23d3a"/><rect x="32.79" y="19.71" width="5.57" height="3.71" fill="#e23d3a"/><rect x="21.64" y="23.43" width="18.57" height="3.71" fill="#e23d3a"/><rect x="23.50" y="27.14" width="14.86" height="3.71" fill="#e23d3a"/><rect x="25.36" y="30.86" width="11.14" height="3.71" fill="#e23d3a"/><rect x="27.21" y="34.57" width="7.43" height="3.71" fill="#e23d3a"/><rect x="29.07" y="38.29" width="3.71" height="1.86" fill="#e23d3a"/><rect x="63.50" y="19.71" width="5.57" height="3.71" fill="#e23d3a"/><rect x="72.79" y="19.71" width="5.57" height="3.71" fill="#e23d3a"/><rect x="61.64" y="23.43" width="18.57" height="3.71" fill="#e23d3a"/><rect x="63.50" y="27.14" width="14.86" height="3.71" fill="#e23d3a"/><rect x="65.36" y="30.86" width="11.14" height="3.71" fill="#e23d3a"/><rect x="67.21" y="34.57" width="7.43" height="3.71" fill="#e23d3a"/><rect x="69.07" y="38.29" width="3.71" height="1.86" fill="#e23d3a"/><rect x="43.50" y="41.71" width="5.57" height="3.71" fill="#e23d3a"/><rect x="52.79" y="41.71" width="5.57" height="3.71" fill="#e23d3a"/><rect x="41.64" y="45.43" width="18.57" height="3.71" fill="#e23d3a"/><rect x="43.50" y="49.14" width="14.86" height="3.71" fill="#e23d3a"/><rect x="45.36" y="52.86" width="11.14" height="3.71" fill="#e23d3a"/><rect x="47.21" y="56.57" width="7.43" height="3.71" fill="#e23d3a"/><rect x="49.07" y="60.29" width="3.71" height="1.86" fill="#e23d3a"/><rect x="23.50" y="66.71" width="5.57" height="3.71" fill="#e23d3a"/><rect x="32.79" y="66.71" width="5.57" height="3.71" fill="#e23d3a"/><rect x="21.64" y="70.43" width="18.57" height="3.71" fill="#e23d3a"/><rect x="23.50" y="74.14" width="14.86" height="3.71" fill="#e23d3a"/><rect x="25.36" y="77.86" width="11.14" height="3.71" fill="#e23d3a"/><rect x="27.21" y="81.57" width="7.43" height="3.71" fill="#e23d3a"/><rect x="29.07" y="85.29" width="3.71" height="1.86" fill="#e23d3a"/><rect x="63.50" y="66.71" width="5.57" height="3.71" fill="#e23d3a"/><rect x="72.79" y="66.71" width="5.57" height="3.71" fill="#e23d3a"/><rect x="61.64" y="70.43" width="18.57" height="3.71" fill="#e23d3a"/><rect x="63.50" y="74.14" width="14.86" height="3.71" fill="#e23d3a"/><rect x="65.36" y="77.86" width="11.14" height="3.71" fill="#e23d3a"/><rect x="67.21" y="81.57" width="7.43" height="3.71" fill="#e23d3a"/><rect x="69.07" y="85.29" width="3.71" height="1.86" fill="#e23d3a"/><rect x="43.50" y="89.71" width="5.57" height="3.71" fill="#e23d3a"/><rect x="52.79" y="89.71" width="5.57" height="3.71" fill="#e23d3a"/><rect x="41.64" y="93.43" width="18.57" height="3.71" fill="#e23d3a"/><rect x="43.50" y="97.14" width="14.86" height="3.71" fill="#e23d3a"/><rect x="45.36" y="100.86" width="11.14" height="3.71" fill="#e23d3a"/><rect x="47.21" y="104.57" width="7.43" height="3.71" fill="#e23d3a"/><rect x="49.07" y="108.29" width="3.71" height="1.86" fill="#e23d3a"/><rect x="23.50" y="111.71" width="5.57" height="3.71" fill="#e23d3a"/><rect x="32.79" y="111.71" width="5.57" height="3.71" fill="#e23d3a"/><rect x="21.64" y="115.43" width="18.57" height="3.71" fill="#e23d3a"/><rect x="23.50" y="119.14" width="14.86" height="3.71" fill="#e23d3a"/><rect x="25.36" y="122.86" width="11.14" height="3.71" fill="#e23d3a"/><rect x="27.21" y="126.57" width="7.43" height="3.71" fill="#e23d3a"/><rect x="29.07" y="130.29" width="3.71" height="1.86" fill="#e23d3a"/><rect x="63.50" y="111.71" width="5.57" height="3.71" fill="#e23d3a"/><rect x="72.79" y="111.71" width="5.57" height="3.71" fill="#e23d3a"/><rect x="61.64" y="115.43" width="18.57" height="3.71" fill="#e23d3a"/><rect x="63.50" y="119.14" width="14.86" height="3.71" fill="#e23d3a"/><rect x="65.36" y="122.86" width="11.14" height="3.71" fill="#e23d3a"/><rect x="67.21" y="126.57" width="7.43" height="3.71" fill="#e23d3a"/><rect x="69.07" y="130.29" width="3.71" height="1.86" fill="#e23d3a"/><g transform="rotate(180 50 75)"><text x="10" y="20" class="rank" fill="#e23d3a">8</text><rect x="11.50" y="24.00" width="3.00" height="2.00" fill="#e23d3a"/><rect x="16.50" y="24.00" width="3.00" height="2.00" fill="#e23d3a"/><rect x="10.50" y="26.00" width="10.00" height="2.00" fill="#e23d3a"/><rect x="11.50" y="28.00" width="8.00" height="2.00" fill="#e23d3a"/><rect x="12.50" y="30.00" width="6.00" height="2.00" fill="#e23d3a"/><rect x="13.50" y="32.00" width="4.00" height="2.00" fill="#e23d3a"/><rect x="14.50" y="34.00" width="2.00" height="1.00" fill="#e23d3a"/></g>
</svg>